<?xml version="1.0" encoding="UTF-8"?>
<svg version="1.1" xmlns="http://www.w3.org/2000/svg" width="229" height="39">
<path d="M0 0 C2.57161458 0.03255208 5.14322917 0.06510417 7.71484375 0.09765625 C8.04484375 4.05765625 8.37484375 8.01765625 8.71484375 12.09765625 C11.35484375 12.09765625 13.99484375 12.09765625 16.71484375 12.09765625 C17.04484375 8.13765625 17.37484375 4.17765625 17.71484375 0.09765625 C21.01484375 0.09765625 24.31484375 0.09765625 27.71484375 0.09765625 C27.71484375 11.31765625 27.71484375 22.53765625 27.71484375 34.09765625 C24.41484375 34.09765625 21.11484375 34.09765625 17.71484375 34.09765625 C17.38484375 30.13765625 17.05484375 26.17765625 16.71484375 22.09765625 C14.07484375 22.09765625 11.43484375 22.09765625 8.71484375 22.09765625 C8.38484375 26.05765625 8.05484375 30.01765625 7.71484375 34.09765625 C4.08484375 34.09765625 0.45484375 34.09765625 -3.28515625 34.09765625 C-3.30980913 29.41626371 -3.32799364 24.73490866 -3.34008789 20.0534668 C-3.34512782 18.45971011 -3.35195975 16.86595806 -3.3605957 15.2722168 C-3.37267624 12.98615372 -3.3783878 10.70015158 -3.3828125 8.4140625 C-3.38797379 7.69738907 -3.39313507 6.98071564 -3.39845276 6.24232483 C-3.39864888 4.52701953 -3.34707632 2.81184359 -3.28515625 1.09765625 C-2.28515625 0.09765625 -2.28515625 0.09765625 0 0 Z " fill="#F8F7F4" transform="translate(138.28515625,1.90234375)"/>
<path d="M0 0 C3.63 0 7.26 0 11 0 C11.33 7.92 11.66 15.84 12 24 C17.46084261 25.51465024 17.46084261 25.51465024 20 24 C20.33 16.08 20.66 8.16 21 0 C24.3 0 27.6 0 31 0 C31.11656783 4.20809884 31.18737611 8.41577996 31.25 12.625 C31.30027344 14.40970703 31.30027344 14.40970703 31.3515625 16.23046875 C31.47505983 27.2834801 31.47505983 27.2834801 27 32 C23.19034402 34.53977065 20.04164491 34.36753945 15.625 34.375 C14.86960938 34.39949219 14.11421875 34.42398438 13.3359375 34.44921875 C9.6394161 34.4686061 7.40986238 34.21427122 4.0859375 32.4765625 C-1.10616527 26.31215584 -0.25507323 18.12429252 -0.125 10.5 C-0.11597656 9.48679687 -0.10695312 8.47359375 -0.09765625 7.4296875 C-0.07429147 4.95302128 -0.03842811 2.47647829 0 0 Z " fill="#F8F7F4" transform="translate(193,2)"/>
<path d="M0 0 C5.9090625 -0.0309375 5.9090625 -0.0309375 11.9375 -0.0625 C13.18136475 -0.071604 14.42522949 -0.08070801 15.70678711 -0.09008789 C17.16483765 -0.09383423 17.16483765 -0.09383423 18.65234375 -0.09765625 C20.15269165 -0.10551147 20.15269165 -0.10551147 21.68334961 -0.11352539 C24 0 24 0 25 1 C25.125 4.5 25.125 4.5 25 8 C24 9 24 9 20.83984375 9.09765625 C18.90818359 9.08025391 18.90818359 9.08025391 16.9375 9.0625 C15.64714844 9.05347656 14.35679688 9.04445313 13.02734375 9.03515625 C12.02832031 9.02355469 11.02929688 9.01195312 10 9 C10 10.32 10 11.64 10 13 C13.96 13 17.92 13 22 13 C22 15.64 22 18.28 22 21 C18.04 21 14.08 21 10 21 C10 22.32 10 23.64 10 25 C14.95 25 19.9 25 25 25 C25 27.97 25 30.94 25 34 C16.75 34 8.5 34 0 34 C0 22.78 0 11.56 0 0 Z " fill="#F8F7F4" transform="translate(80,2)"/>
<path d="M0 0 C1.175625 0.02707031 1.175625 0.02707031 2.375 0.0546875 C4.29220189 0.10144852 6.20876715 0.17317997 8.125 0.25 C8.125 3.22 8.125 6.19 8.125 9.25 C3.505 9.58 -1.115 9.91 -5.875 10.25 C-6.97006492 13.53519475 -6.97460608 15.98663415 -6.9375 19.4375 C-6.916875 21.355625 -6.89625 23.27375 -6.875 25.25 C-1.595 24.92 3.685 24.59 9.125 24.25 C9.125 26.89 9.125 29.53 9.125 32.25 C5.92547851 35.44952149 2.16404663 34.6185293 -2.1875 34.625 C-3.04279297 34.64949219 -3.89808594 34.67398438 -4.77929688 34.69921875 C-8.95058612 34.71860507 -11.27900215 34.60958792 -14.91796875 32.4140625 C-18.67903782 28.25511587 -18.09133899 23.66819389 -18.125 18.375 C-18.145625 17.57191406 -18.16625 16.76882812 -18.1875 15.94140625 C-18.21856778 11.22687001 -18.05994014 7.9836063 -14.875 4.25 C-9.97012761 -0.02902814 -6.18897213 -0.27273437 0 0 Z " fill="#F8F7F3" transform="translate(124.875,1.75)"/>
<path d="M0 0 C9.24 0 18.48 0 28 0 C28 2.97 28 5.94 28 9 C24.7 9 21.4 9 18 9 C18 17.25 18 25.5 18 34 C14.7 34 11.4 34 8 34 C8 25.75 8 17.5 8 9 C5.36 9 2.72 9 0 9 C0 6.03 0 3.06 0 0 Z " fill="#F8F7F4" transform="translate(50,2)"/>
<path d="M0 0 C3.3 0 6.6 0 10 0 C12.30938251 2.30938251 11.1854044 7.90270275 11.1875 11 C11.19974609 11.92167969 11.21199219 12.84335938 11.22460938 13.79296875 C11.25493441 28.12660057 11.25493441 28.12660057 7.390625 33.05078125 C3.86933377 34.448941 0.4711297 34.31570146 -3.25 34.1875 C-3.99507812 34.17396484 -4.74015625 34.16042969 -5.5078125 34.14648438 C-7.33885416 34.11127204 -9.16952169 34.05746851 -11 34 C-11 31.03 -11 28.06 -11 25 C-7.37 25 -3.74 25 0 25 C0 16.75 0 8.5 0 0 Z " fill="#F8F7F4" transform="translate(179,2)"/>
<path d="M0 0 C5.06339959 2.42522644 9.83872258 5.20293122 14 9 C15.40184318 14.7152068 12.85110001 20.52382914 11 26 C6.44299575 25.47515308 3.807126 23.68492697 0.1875 20.9375 C-0.78832031 20.20402344 -1.76414062 19.47054688 -2.76953125 18.71484375 C-3.50558594 18.14894531 -4.24164062 17.58304688 -5 17 C-4.54619105 15.10307857 -4.08675008 13.20750405 -3.625 11.3125 C-3.36976562 10.25675781 -3.11453125 9.20101563 -2.8515625 8.11328125 C-2.08094511 5.29593234 -1.14501457 2.68331675 0 0 Z " fill="#67269D" transform="translate(28,0)"/>
<path d="M0 0 C4.04735532 1.40016617 6.98480422 3.3181237 10.3125 6 C11.19550781 6.70125 12.07851563 7.4025 12.98828125 8.125 C13.98408203 9.053125 13.98408203 9.053125 15 10 C15 10.66 15 11.32 15 12 C12.734375 13.69140625 12.734375 13.69140625 9.75 15.5625 C8.77546875 16.18253906 7.8009375 16.80257812 6.796875 17.44140625 C2.24423737 19.97842079 2.24423737 19.97842079 0 20 C-2.28027545 18.66491644 -4.19355058 17.36859296 -6.25 15.75 C-7.08144531 15.13705078 -7.08144531 15.13705078 -7.9296875 14.51171875 C-9.515625 13.296875 -9.515625 13.296875 -12 11 C-12 10.01 -12 9.02 -12 8 C-9.62890625 6.2109375 -9.62890625 6.2109375 -6.5625 4.375 C-3.09234338 2.43951068 -3.09234338 2.43951068 0 0 Z " fill="#64269B" transform="translate(21,18)"/>
<path d="M0 0 C3.07492597 1.53746298 5.52314365 2.98010641 8.25 5 C8.95640625 5.515625 9.6628125 6.03125 10.390625 6.5625 C11.18726563 7.2740625 11.18726563 7.2740625 12 8 C12 8.66 12 9.32 12 10 C10.35546875 11.2890625 10.35546875 11.2890625 8.1875 12.625 C7.47980469 13.07101563 6.77210937 13.51703125 6.04296875 13.9765625 C4 15 4 15 1 15 C0.67 10.05 0.34 5.1 0 0 Z " fill="#84159E" transform="translate(24,20)"/>
<path d="M0 0 C2.77042109 2.77042109 2.39796106 4.76533805 2.625 8.625 C2.69976562 9.81351563 2.77453125 11.00203125 2.8515625 12.2265625 C2.92503906 13.59941406 2.92503906 13.59941406 3 15 C0.27443281 13.69148655 -2.25633764 12.27289662 -4.75 10.5625 C-5.36359375 10.15128906 -5.9771875 9.74007813 -6.609375 9.31640625 C-7.06828125 8.88199219 -7.5271875 8.44757812 -8 8 C-8 7.01 -8 6.02 -8 5 C-6.25 3.61328125 -6.25 3.61328125 -4 2.3125 C-3.2575 1.87550781 -2.515 1.43851563 -1.75 0.98828125 C-1.1725 0.66214844 -0.595 0.33601563 0 0 Z " fill="#503399" transform="translate(17,21)"/>
<path d="M0 0 C1.98 1.65 3.96 3.3 6 5 C4.68 7.31 3.36 9.62 2 12 C0.35 10.68 -1.3 9.36 -3 8 C-2.45276317 4.62537285 -1.9451 2.91765 0 0 Z " fill="#4F2E89" transform="translate(6,15)"/>
<path d="M0 0 C2.41419718 0.96567887 3.80863755 1.75871691 5.4375 3.8125 C6 6 6 6 4.625 8.75 C4.08875 9.4925 3.5525 10.235 3 11 C0.58580282 10.03432113 -0.80863755 9.24128309 -2.4375 7.1875 C-3 5 -3 5 -1.625 2.25 C-1.08875 1.5075 -0.5525 0.765 0 0 Z " fill="#751C95" transform="translate(10,8)"/>
<path d="M0 0 C1.98 0.99 1.98 0.99 4 2 C4.609375 4.8203125 4.609375 4.8203125 4.75 8.125 C4.80671875 9.22070312 4.8634375 10.31640625 4.921875 11.4453125 C4.94765625 12.28835937 4.9734375 13.13140625 5 14 C3.68 14.33 2.36 14.66 1 15 C0.67 10.05 0.34 5.1 0 0 Z " fill="#781A9E" transform="translate(24,20)"/>
<path d="M0 0 C0.66 0.33 1.32 0.66 2 1 C2.59355614 3.64860427 2.74209269 6.29197322 3 9 C0.50638429 7.79618552 -1.68143083 6.54571278 -4 5 C-4 4.01 -4 3.02 -4 2 C-2.125 0.9375 -2.125 0.9375 0 0 Z " fill="#3B4296" transform="translate(13,24)"/>
<path d="M0 0 C0.99 0.33 1.98 0.66 3 1 C2.01 2.485 2.01 2.485 1 4 C0.46034467 5.46516421 -0.03728477 6.9462493 -0.5 8.4375 C-1.44017638 11.45730567 -2.52111481 14.20159225 -4 17 C-5 15 -5 15 -4.00390625 11.5234375 C-3.53099953 10.13802064 -3.05018356 8.75528453 -2.5625 7.375 C-2.31951172 6.66859375 -2.07652344 5.9621875 -1.82617188 5.234375 C-1.22412795 3.48726713 -0.61291983 1.74332214 0 0 Z " fill="#433484" transform="translate(28,0)"/>
<path d="M0 0 C1.32 0.66 2.64 1.32 4 2 C2.35 3.98 0.7 5.96 -1 8 C-1.66 7.67 -2.32 7.34 -3 7 C-1.125 2.25 -1.125 2.25 0 0 Z " fill="#473488" transform="translate(10,8)"/>
<path d="M0 0 C0.66 0 1.32 0 2 0 C2 2.97 2 5.94 2 9 C0.02 9 -1.96 9 -4 9 C-3.67 8.34 -3.34 7.68 -3 7 C-2.01 7 -1.02 7 0 7 C0 4.69 0 2.38 0 0 Z " fill="#EDEDEB" transform="translate(131,2)"/>
<path d="M0 0 C2.4375 0.8125 2.4375 0.8125 5 2 C5.33 2.99 5.66 3.98 6 5 C4.35 5.33 2.7 5.66 1 6 C0.67 4.02 0.34 2.04 0 0 Z " fill="#8C0F98" transform="translate(30,25)"/>
<path d="M0 0 C0.99 0.66 1.98 1.32 3 2 C3 2.99 3 3.98 3 5 C1.35 5.66 -0.3 6.32 -2 7 C-1.125 2.25 -1.125 2.25 0 0 Z " fill="#7F1899" transform="translate(6,15)"/>
<path d="M0 0 C0.66 0.33 1.32 0.66 2 1 C2.59355614 3.64860427 2.74209269 6.29197322 3 9 C1.68 8.34 0.36 7.68 -1 7 C-0.34 6.67 0.32 6.34 1 6 C1 4.68 1 3.36 1 2 C0.01 1.67 -0.98 1.34 -2 1 C-1.34 0.67 -0.68 0.34 0 0 Z " fill="#413B92" transform="translate(13,24)"/>
<path d="M0 0 C0.33 0 0.66 0 1 0 C0.67 2.97 0.34 5.94 0 9 C-0.99 9 -1.98 9 -3 9 C-2.01 6.03 -1.02 3.06 0 0 Z " fill="#840E9A" transform="translate(39,17)"/>
</svg>
